<svg width="1776" height="1776" viewBox="0 0 1776 1776" fill="none" xmlns="http://www.w3.org/2000/svg">
<g clip-path="url(#clip0_808_1400)">
<path fill-rule="evenodd" clip-rule="evenodd" d="M906.325 0.179237C1388.29 9.94724 1776 403.699 1776 888C1776 1378.43 1378.43 1776 888 1776C397.573 1776 0 1378.43 0 888C0 397.573 397.573 -0.000157041 888 -0.000157041C889.495 -0.0038539 890.99 -0.0038539 892.485 -0.000157041C897.113 -0.000157041 901.724 0.0626308 906.325 0.179237ZM1273.89 1482.41C1162.86 1554.65 1030.33 1596.61 888 1596.61C741.902 1596.61 606.127 1552.39 493.333 1476.61V819.095C586.107 937.495 730.402 1013.58 892.485 1013.58C928.983 1013.58 964.583 1009.72 998.892 1002.39L999.009 1003.01C1167.36 970.853 1275.75 1033.89 1323.83 1119.66C1372.53 1206.52 1373.31 1341.48 1273.89 1482.41ZM1531.29 1185.57C1573.21 1095.09 1596.61 994.282 1596.61 888C1596.61 689.608 1515.08 510.268 1383.7 381.634C1394.07 422.542 1399.31 464.585 1399.27 506.788C1399.27 638.283 1349.19 758.065 1267.08 848.139C1359.07 883.892 1432.94 947.415 1480.32 1031.95C1506.87 1079.32 1523.92 1131.19 1531.29 1185.57ZM179.394 888C179.394 732.779 229.301 589.219 313.939 472.488V1303.51C229.301 1186.78 179.394 1043.22 179.394 888ZM890.673 179.394C894.449 179.412 898.225 179.457 901.993 179.528C1078.41 184.551 1219.88 329.152 1219.88 506.788C1219.88 687.599 1073.3 834.182 892.485 834.182C711.674 834.182 565.091 687.599 565.091 506.788C565.091 326.587 710.687 180.38 890.673 179.394Z" fill="#E0B322" />
</g>
<defs>
<clipPath id="clip0_808_1400">
<rect width="1776" height="1776" fill="white"/>
</clipPath>
</defs>
</svg>