<svg width="1371" height="287" viewBox="0 0 1371 287" fill="none" xmlns="http://www.w3.org/2000/svg">
<g clip-path="url(#clip0_721_1513)">
<path fill-rule="evenodd" clip-rule="evenodd" d="M692.133 82.3952C691.721 82.2117 691.261 82.1637 690.82 82.2582C690.378 82.3527 689.978 82.5847 689.677 82.921C689.376 83.2572 689.189 83.6803 689.144 84.1294C689.098 84.5785 689.196 85.0304 689.424 85.4202L703.73 109.945L689.424 134.47C689.196 134.86 689.098 135.312 689.144 135.761C689.189 136.21 689.376 136.633 689.677 136.969C689.978 137.305 690.378 137.537 690.82 137.632C691.261 137.726 691.721 137.678 692.133 137.495L749.733 111.895C750.111 111.727 750.431 111.454 750.656 111.108C750.881 110.762 751.001 110.358 751.001 109.945C751.001 109.532 750.881 109.128 750.656 108.782C750.431 108.436 750.111 108.163 749.733 107.995L692.133 82.3952ZM707.677 108.238L696.438 88.9786L743.619 109.945L696.438 130.911L707.677 111.652H725.401C725.853 111.652 726.287 111.472 726.607 111.152C726.927 110.832 727.107 110.398 727.107 109.945C727.107 109.492 726.927 109.058 726.607 108.738C726.287 108.418 725.853 108.238 725.401 108.238H707.677Z" fill="#E0B322"/>
</g>
<path d="M1357.23 121.443C1354.98 121.425 1352.73 121.771 1350.59 122.468L1350.56 122.465C1348.51 123.09 1338.72 126.288 1323.84 131.132L1270.53 148.581C1232.27 161.095 1194.66 173.424 1194.66 173.424L1195.11 173.292C1195.11 173.292 1192.53 173.91 1189.77 175.484C1188.07 176.378 1186.57 177.606 1185.36 179.094C1183.92 180.866 1182.66 183.653 1182.8 186.65C1183.03 191.717 1186.05 194.989 1188.27 196.838C1190.51 198.711 1192.71 199.678 1192.71 199.678L1192.76 199.683L1225.96 213.859C1227.1 218.866 1233.63 248.566 1235.23 255.414C1236.16 259.504 1237.18 262.096 1238.56 264.123C1239.22 265.156 1240.02 266.038 1241.01 266.775C1241.53 267.132 1242.09 267.425 1242.67 267.65L1242.33 267.538C1242.43 267.575 1242.51 267.665 1242.58 267.699C1242.86 267.798 1243.04 267.841 1243.4 267.925C1248.67 269.986 1253.27 267 1253.27 267L1253.53 266.825L1275.14 250.209L1306.83 278.682L1307.57 279.071C1314.36 282.708 1321.63 281.572 1325.64 278.86C1329.67 276.13 1331.46 272.364 1331.46 272.364L1331.76 271.759L1368.54 140.955C1369.55 137.735 1369.99 134.679 1369.41 131.633C1368.81 128.548 1367.07 125.797 1364.54 123.919C1362.41 122.385 1359.86 121.522 1357.23 121.443ZM1355.38 135.629C1355.32 136.065 1355.4 136.023 1355.14 136.848L1355.14 136.924L1318.7 266.365C1318.58 266.544 1318.35 266.939 1317.8 267.307C1317.22 267.694 1316.77 267.93 1314.57 266.851L1275.81 232.046L1249.05 252.646L1256.97 219.788L1329.47 162.689C1332.46 160.342 1331.57 159.726 1331.57 159.726C1332.02 156.587 1327.45 158.464 1327.45 158.464L1238.15 204.022L1238.14 203.881L1198.46 186.946L1198.46 186.918L1198.36 186.889C1198.43 186.871 1198.5 186.849 1198.58 186.822L1198.81 186.729L1199.03 186.67C1199.03 186.67 1236.67 174.344 1274.92 161.83C1294.08 155.561 1313.38 149.247 1328.22 144.373C1337.02 141.494 1345.83 138.637 1354.65 135.801C1355.24 135.625 1354.97 135.596 1355.38 135.629Z" fill="#E0B322"/>
<path d="M73.6746 217.586C72.9256 217.377 72.1479 217.29 71.3719 217.329L71.3628 217.326C70.6231 217.349 67.0793 217.532 61.6937 217.806L42.3842 218.814C28.5293 219.536 14.9066 220.254 14.9066 220.254L15.0671 220.251C15.0671 220.251 14.155 220.225 13.0937 220.5C12.4473 220.644 11.8375 220.918 11.3011 221.304C10.6637 221.765 9.9921 222.578 9.7708 223.588C9.3898 225.294 10.1028 226.655 10.6731 227.47C11.25 228.295 11.8951 228.814 11.8951 228.814L11.9133 228.821L21.6834 236.524C21.6112 238.293 21.1127 248.762 21.0268 251.184C20.9705 252.629 21.0773 253.584 21.353 254.382C21.4805 254.785 21.6676 255.151 21.9302 255.485C22.0698 255.65 22.2288 255.798 22.4037 255.925L22.2997 255.857C22.3305 255.879 22.3481 255.916 22.3699 255.934C22.4519 255.991 22.5101 256.022 22.6196 256.082C24.1876 257.242 25.9892 256.663 25.9892 256.663L26.0915 256.628L34.7772 253.044L42.7586 265.368L42.9706 265.564C44.9021 267.385 47.4213 267.661 48.9991 267.119C50.5884 266.574 51.5217 265.482 51.5217 265.482L51.6743 265.307L75.683 225.095C76.3069 224.114 76.7269 223.137 76.8088 222.071C76.8866 220.991 76.556 219.919 75.882 219.067C75.3111 218.364 74.542 217.848 73.6746 217.586ZM71.782 222.139C71.7218 222.278 71.7547 222.272 71.5929 222.523L71.584 222.548L47.8163 262.338C47.758 262.386 47.6488 262.498 47.4326 262.571C47.2049 262.647 47.0323 262.685 46.3979 262.128L36.6333 247.061L25.8751 251.507L31.4663 241.287L60.7258 228.811C61.9311 228.299 61.6919 228.014 61.6919 228.014C62.1238 227.011 60.433 227.223 60.433 227.223L26.6246 234.348L26.6318 234.3L14.954 225.095L14.9573 225.086L14.9256 225.067C14.9516 225.068 14.9776 225.067 15.0035 225.065L15.0893 225.055L15.1687 225.055C15.1687 225.055 28.8005 224.34 42.6554 223.618C49.5924 223.256 56.5815 222.891 61.9589 222.605C65.1466 222.439 68.3347 222.281 71.5232 222.13C71.7357 222.125 71.6478 222.091 71.782 222.139Z" fill="#E0B322"/>
<path d="M92 213.218C145 200.718 191 129.872 308.5 174.442C356.676 192.716 515 213.218 521.5 109.946C529.738 -20.9432 21.5 -88.5549 447.904 241.272C624.083 377.548 566.5 120.446 681 109.946M1205 247.945C735.5 378.445 928.238 116.322 767 109.946" stroke="#E0B322" stroke-width="4" stroke-linecap="round" stroke-dasharray="8 8"/>
<defs>
<clipPath id="clip0_721_1513">
<rect width="64" height="64" fill="white" transform="translate(687 77.9453)"/>
</clipPath>
</defs>
</svg>
